<svg xmlns="http://www.w3.org/2000/svg" width="100" height="100"><path fill="#1d1d1b" d="M14.5 90A6.5 6.5 0 0 1 8 83.5v-30a6.5 6.5 0 0 1 6.5-6.5H16V16a2 2 0 0 1 2-2h68a2 2 0 0 1 2 2v31h1.5a6.5 6.5 0 0 1 6.5 6.5v30a6.5 6.5 0 0 1-6.5 6.5h-75z" opacity=".35"/><path fill="#f2f2f2" d="M12.5 88A6.5 6.5 0 0 1 6 81.5v-30a6.5 6.5 0 0 1 6.5-6.5H14V14a2 2 0 0 1 2-2h68a2 2 0 0 1 2 2v31h1.5a6.5 6.5 0 0 1 6.5 6.5v30a6.5 6.5 0 0 1-6.5 6.5h-75z"/><path fill="#ff7575" d="M12.5 51.5h75v30h-75z"/><path fill="#b73b3b" d="M19 51.5h11V71H19zM50 51.5h8V71h-8zM34 51.5h5V71h-5zM62 51.5h5V71h-5zM71 51.5h3V71h-3zM78 51.5h3V71h-3zM43 51.5h3V71h-3z"/><g fill="#40396e"><path d="M19 17h11v34.5H19zM50 17h8v34.5h-8zM34 17h5v34.5h-5zM62 17h5v34.5h-5zM71 17h3v34.5h-3zM78 17h3v34.5h-3zM43 17h3v34.5h-3z"/></g><path fill="#40396e" d="M87.5 83h-75a1.5 1.5 0 0 1-1.5-1.5v-30a1.5 1.5 0 0 1 1.5-1.5h75a1.5 1.5 0 0 1 1.5 1.5v30a1.5 1.5 0 0 1-1.5 1.5zM14 80h72V53H14v27z"/></svg>